<svg width="20" height="20" viewBox="0 0 20 20" fill="none" xmlns="http://www.w3.org/2000/svg">
<path fill-rule="evenodd" clip-rule="evenodd" d="M14.3981 11.5743C14.9604 11.5743 15.4323 12.0384 15.3463 12.5936C14.8419 15.8603 12.0455 18.2857 8.67264 18.2857C4.94107 18.2857 1.9165 15.2612 1.9165 11.5305C1.9165 8.45677 4.25159 5.59362 6.88054 4.94625C7.44545 4.80677 8.0244 5.20414 8.0244 5.78572C8.0244 9.72607 8.15685 10.7454 8.9051 11.2998C9.65335 11.8541 10.5332 11.5743 14.3981 11.5743Z" stroke="url(#paint0_linear_24_3040)" stroke-width="1.2" stroke-linecap="round" stroke-linejoin="round"/>
<path fill-rule="evenodd" clip-rule="evenodd" d="M18.0768 8.293C18.1215 5.76142 15.0119 1.68072 11.2224 1.75089C10.9277 1.75616 10.6917 2.00177 10.6785 2.29563C10.5829 4.37721 10.7119 7.07458 10.7838 8.29738C10.8057 8.67809 11.1049 8.97721 11.4847 8.99914C12.7417 9.07107 15.5373 9.16931 17.5891 8.85879C17.868 8.81668 18.0724 8.57458 18.0768 8.293Z" stroke="url(#paint1_linear_24_3040)" stroke-width="1.2" stroke-linecap="round" stroke-linejoin="round"/>
<defs>
<linearGradient id="paint0_linear_24_3040" x1="15.3565" y1="18.2857" x2="-2.55507" y2="16.8922" gradientUnits="userSpaceOnUse">
<stop stop-color="#00FF66"/>
<stop offset="1" stop-color="#00F0FF"/>
</linearGradient>
<linearGradient id="paint1_linear_24_3040" x1="18.0773" y1="9.07283" x2="8.17275" y2="8.29491" gradientUnits="userSpaceOnUse">
<stop stop-color="#00FF66"/>
<stop offset="1" stop-color="#00F0FF"/>
</linearGradient>
</defs>
</svg>
