<svg width="14" height="14" viewBox="0 0 14 14" fill="none" xmlns="http://www.w3.org/2000/svg">
<path fill-rule="evenodd" clip-rule="evenodd" d="M9.56647 0.66716C9.98714 0.66716 10.4071 0.726493 10.8065 0.860493C13.2671 1.66049 14.1538 4.36049 13.4131 6.72049C12.9931 7.92649 12.3065 9.02716 11.4071 9.92649C10.1198 11.1732 8.70714 12.2798 7.18647 13.2332L7.01981 13.3338L6.84647 13.2265C5.32047 12.2798 3.89981 11.1732 2.60047 9.91983C1.70714 9.02049 1.01981 7.92649 0.593141 6.72049C-0.160192 4.36049 0.726474 1.66049 3.21381 0.846493C3.40714 0.779826 3.60647 0.73316 3.80647 0.70716H3.88647C4.07381 0.679826 4.25981 0.66716 4.44647 0.66716H4.51981C4.93981 0.679826 5.34647 0.75316 5.74047 0.88716H5.77981C5.80647 0.899826 5.82647 0.913826 5.83981 0.926493C5.98714 0.973826 6.12647 1.02716 6.25981 1.10049L6.51314 1.21383C6.57436 1.24647 6.64307 1.29636 6.70245 1.33947C6.74007 1.36679 6.77395 1.39139 6.79981 1.40716C6.81069 1.41358 6.82174 1.42003 6.83289 1.42654C6.89005 1.45991 6.9496 1.49467 6.99981 1.53316C7.74047 0.96716 8.63981 0.660493 9.56647 0.66716ZM11.3398 5.46716C11.6131 5.45983 11.8465 5.24049 11.8665 4.95983V4.88049C11.8865 3.94649 11.3205 3.10049 10.4598 2.77383C10.1865 2.67983 9.88647 2.82716 9.78647 3.10716C9.69314 3.38716 9.83981 3.69383 10.1198 3.79316C10.5471 3.95316 10.8331 4.37383 10.8331 4.83983V4.86049C10.8205 5.01316 10.8665 5.16049 10.9598 5.27383C11.0531 5.38716 11.1931 5.45316 11.3398 5.46716Z" fill="#B6B4C2"/>
</svg>
