<svg width="14" height="14" viewBox="0 0 14 14" fill="none" xmlns="http://www.w3.org/2000/svg">
<path fill-rule="evenodd" clip-rule="evenodd" d="M9.56635 0.667129C9.98702 0.667129 10.407 0.726462 10.8064 0.860462C13.267 1.66046 14.1537 4.36046 13.413 6.72046C12.993 7.92646 12.3064 9.02713 11.407 9.92646C10.1197 11.1731 8.70702 12.2798 7.18635 13.2331L7.01969 13.3338L6.84635 13.2265C5.32035 12.2798 3.89969 11.1731 2.60035 9.9198C1.70702 9.02046 1.01969 7.92646 0.593019 6.72046C-0.160314 4.36046 0.726352 1.66046 3.21369 0.846462C3.40702 0.779796 3.60635 0.733129 3.80635 0.707129H3.88635C4.07369 0.679796 4.25969 0.667129 4.44635 0.667129H4.51969C4.93969 0.679796 5.34635 0.753129 5.74035 0.887129H5.77969C5.80635 0.899796 5.82635 0.913796 5.83968 0.926463C5.98702 0.973796 6.12635 1.02713 6.25969 1.10046L6.51302 1.2138C6.57423 1.24644 6.64294 1.29633 6.70233 1.33944C6.73995 1.36676 6.77383 1.39136 6.79969 1.40713C6.81057 1.41355 6.82162 1.42 6.83277 1.42651C6.88993 1.45988 6.94948 1.49464 6.99968 1.53313C7.74035 0.967129 8.63968 0.660462 9.56635 0.667129ZM11.3397 5.46713C11.613 5.4598 11.8464 5.24046 11.8664 4.9598V4.88046C11.8864 3.94646 11.3204 3.10046 10.4597 2.7738C10.1864 2.6798 9.88635 2.82713 9.78635 3.10713C9.69302 3.38713 9.83969 3.6938 10.1197 3.79313C10.547 3.95313 10.833 4.3738 10.833 4.8398V4.86046C10.8204 5.01313 10.8664 5.16046 10.9597 5.2738C11.053 5.38713 11.193 5.45313 11.3397 5.46713Z" fill="#FF0000"/>
</svg>
