<svg width="19" height="19" viewBox="0 0 19 19" fill="none" xmlns="http://www.w3.org/2000/svg">
<path fill-rule="evenodd" clip-rule="evenodd" d="M7.75719 12.1823C10.5942 12.1823 13.019 12.598 13.019 14.2586C13.019 15.9192 10.6104 16.3468 7.75719 16.3468C4.9194 16.3468 2.49536 15.9348 2.49536 14.2735C2.49536 12.6121 4.90325 12.1823 7.75719 12.1823Z" stroke="#7B6F72" stroke-width="1.2" stroke-linecap="round" stroke-linejoin="round"/>
<path fill-rule="evenodd" clip-rule="evenodd" d="M7.75708 9.81219C5.89444 9.81219 4.38403 8.35236 4.38403 6.55119C4.38403 4.75002 5.89444 3.29019 7.75708 3.29019C9.61894 3.29019 11.1294 4.75002 11.1294 6.55119C11.1363 8.34567 9.63663 9.80549 7.78092 9.81219H7.75708Z" stroke="#7B6F72" stroke-width="1.2" stroke-linecap="round" stroke-linejoin="round"/>
<path d="M13.0571 8.96575C14.2884 8.79842 15.2366 7.77662 15.2389 6.53989C15.2389 5.32102 14.3199 4.30962 13.1148 4.1185" stroke="#7B6F72" stroke-width="1.2" stroke-linecap="round" stroke-linejoin="round"/>
<path d="M14.6816 11.8293C15.8744 12.0011 16.7073 12.4057 16.7073 13.2386C16.7073 13.8119 16.3151 14.1838 15.6814 14.4165" stroke="#7B6F72" stroke-width="1.2" stroke-linecap="round" stroke-linejoin="round"/>
</svg>
