<svg width="19" height="19" viewBox="0 0 19 19" fill="none" xmlns="http://www.w3.org/2000/svg">
<g clip-path="url(#clip0_297_847)">
<path d="M2.00307 1.37341H17.2158C17.8501 1.37341 18.338 1.86896 18.338 2.44209V17.1528C18.338 17.726 17.8501 18.2215 17.2158 18.2215H2.00307C1.3688 18.2215 0.880859 17.726 0.880859 17.1528V2.44209C0.880859 1.86896 1.3688 1.37341 2.00307 1.37341ZM17.2158 18.1757C17.7741 18.1757 18.2565 17.7329 18.2565 17.1528V2.44209C18.2565 1.862 17.7741 1.4192 17.2158 1.4192H2.00307C1.44476 1.4192 0.962333 1.862 0.962333 2.44209V17.1528C0.962333 17.7329 1.44476 18.1757 2.00307 18.1757H17.2158Z" stroke="#7B6F72"/>
<path d="M12.6363 9.14876L12.6362 9.14867L6.87643 9.55344L6.58297 9.14861C6.58295 9.14863 6.58292 9.14865 6.5829 9.14867C6.57492 9.15443 6.56477 9.15802 6.55241 9.15802C6.53201 9.15802 6.5197 9.14917 6.51438 9.14233L3.66009 5.47036C3.66008 5.47035 3.66007 5.47033 3.66005 5.47031C3.65809 5.46777 3.65733 5.46579 3.65702 5.46461C3.65671 5.46344 3.65668 5.46252 3.65682 5.46159L3.1621 5.38908L3.65674 5.46208C3.65689 5.46107 3.65812 5.45534 3.66683 5.44902L3.37305 5.04443L3.66659 5.4492C5.39299 4.19719 7.44658 3.5347 9.60954 3.5347C11.7724 3.5347 13.8259 4.19712 15.5523 5.44902C15.5609 5.45529 15.562 5.461 15.5621 5.46166L15.5622 5.46208C15.5623 5.4625 15.5623 5.4629 15.5623 5.46334C15.5622 5.46373 15.5622 5.46414 15.562 5.46461C15.5618 5.46563 15.5611 5.46752 15.5591 5.47005L15.559 5.47017L12.7045 9.14241L12.7045 9.14246C12.6999 9.14832 12.6909 9.15529 12.675 9.15749C12.6591 9.15968 12.6458 9.15563 12.6363 9.14876ZM12.2895 8.85325L12.6686 9.07758L12.9389 8.72981L15.1496 5.88576L15.4852 5.45398L15.0252 5.15829C13.4157 4.12378 11.5538 3.58049 9.60954 3.58049C7.66532 3.58049 5.80343 4.12378 4.19389 5.15829L3.73385 5.45398L4.06947 5.88576L6.28015 8.72981L6.55048 9.07758L6.92956 8.85325C7.59441 8.45981 8.33566 8.2211 9.11434 8.14988L9.56881 8.10832V7.65196V6.05822C9.56881 6.05657 9.56902 6.05589 9.5694 6.05503C9.56995 6.05378 9.57142 6.05111 9.57474 6.0479C9.58138 6.04149 9.5927 6.03533 9.60954 6.03533C9.62639 6.03533 9.63771 6.04149 9.64434 6.0479C9.64766 6.05111 9.64914 6.05378 9.64968 6.05503C9.64985 6.0554 9.64998 6.05574 9.65008 6.05614C9.65021 6.05666 9.65028 6.05729 9.65028 6.05822V7.65196V8.10832L10.1047 8.14988C10.8834 8.2211 11.6247 8.45981 12.2895 8.85325Z" stroke="#7B6F72"/>
</g>
<defs>
<clipPath id="clip0_297_847">
<rect width="18.4571" height="17.8481" fill="white" transform="translate(0.380859 0.873413)"/>
</clipPath>
</defs>
</svg>
